<svg version="1.1"
      xmlns="http://www.w3.org/2000/svg"
      xmlns:xlink="http://www.w3.org/1999/xlink"  id="snapshot-89386" width="250" height="250" viewBox="0 0 250 250"><desc>This image was made on Patterninja.com</desc><defs>
<!-- image 96735 -->
<g id="transformed-96735" data-image="96735" transform="translate(-35, 90) rotate(348, 35, 35)"><g><svg version="1.1" width="70px" height="70px" viewBox="0 0 70 70"><g id="original-96735"><svg xmlns="http://www.w3.org/2000/svg" viewBox="0 0 64 64" xmlns:xlink="http://www.w3.org/1999/xlink" version="1.1" preserveAspectRatio="xMidYMid meet">
  <g data-name="33.star">
    <path d="M47.4 31.27A14.46 14.46 0 0 1 33 16.82a1 1 0 0 0-2 0 14.47 14.47 0 0 1-14.51 14.45 1 1 0 0 0 0 2A14.48 14.48 0 0 1 31 47.73a1 1 0 0 0 2 0 14.47 14.47 0 0 1 14.4-14.46 1 1 0 0 0 0-2z" fill="rgba(110, 84, 148, 1)" stroke="none"/>
    <path d="M25.51 45.28a7.34 7.34 0 0 1-7.34-7.34 1 1 0 0 0-2 0 7.35 7.35 0 0 1-7.35 7.34 1 1 0 0 0 0 2 7.36 7.36 0 0 1 7.35 7.35 1 1 0 0 0 2 0 7.35 7.35 0 0 1 7.34-7.35 1 1 0 0 0 0-2z" fill="rgba(110, 84, 148, 1)" stroke="none"/>
    <path d="M55.18 16.72a7.36 7.36 0 0 1-7.35-7.35 1 1 0 0 0-2 0 7.35 7.35 0 0 1-7.34 7.35 1 1 0 0 0 0 2 7.34 7.34 0 0 1 7.34 7.34 1 1 0 0 0 2 0 7.35 7.35 0 0 1 7.35-7.34 1 1 0 0 0 0-2z" fill="rgba(110, 84, 148, 1)" stroke="none"/>
  </g>
</svg>
</g></svg></g></g>
<!-- /image 96735 -->

<!-- image 12340 -->
<g id="transformed-12340" data-image="12340" transform="translate(-32, -32) rotate(328, 32, 32)"><g><svg version="1.1" width="64px" height="64px" viewBox="0 0 64 64"><g id="original-12340"><svg xmlns="http://www.w3.org/2000/svg" data-name="Layer 1" viewBox="0 0 48 48" xmlns:xlink="http://www.w3.org/1999/xlink" version="1.1" preserveAspectRatio="xMidYMid meet">
  <path d="M41.864 18.729a2.716 2.716 0 0 0-2.027-1.829l-8.89-1.925L26.5 7.331a2.89 2.89 0 0 0-4.994 0l-4.45 7.641L8.164 16.9A2.743 2.743 0 0 0 6.7 21.405l6.06 6.783-.917 9.048a2.734 2.734 0 0 0 3.835 2.785L24 36.354l8.323 3.667a2.742 2.742 0 0 0 3.835-2.785l-.917-9.048 6.06-6.783a2.718 2.718 0 0 0 .563-2.676z" fill="rgba(110, 84, 148, 1)" stroke="none"/>
  <path d="M24 46a1 1 0 0 1-1-1v-4a1 1 0 0 1 2 0v4a1 1 0 0 1-1 1z" fill="rgba(110, 84, 148, 1)" stroke="none"/>
  <path d="M4.028 31.489a1 1 0 0 1-.309-1.951l3.8-1.236a1 1 0 0 1 .618 1.9l-3.8 1.236a.982.982 0 0 1-.309.051z" fill="rgba(110, 84, 148, 1)" stroke="none"/>
  <path d="M43.972 31.489a.982.982 0 0 1-.309-.049l-3.8-1.236a1 1 0 1 1 .618-1.9l3.8 1.236a1 1 0 0 1-.309 1.951z" fill="rgba(110, 84, 148, 1)" stroke="none"/>
  <path d="M33.991 11.247a1 1 0 0 1-.808-1.588l2.351-3.236A1 1 0 1 1 37.152 7.6L34.8 10.834a1 1 0 0 1-.809.413z" fill="rgba(110, 84, 148, 1)" stroke="none"/>
  <path d="M14.009 11.247a1 1 0 0 1-.81-.413L10.848 7.6a1 1 0 1 1 1.618-1.176l2.351 3.236a1 1 0 0 1-.808 1.588z" fill="rgba(110, 84, 148, 1)" stroke="none"/>
</svg>
</g></svg></g></g>
<!-- /image 12340 -->

<!-- image 06928 -->
<g id="transformed-06928" data-image="06928" transform="translate(90, -35) rotate(28, 35, 35)"><g><svg version="1.1" width="70px" height="70px" viewBox="0 0 70 70"><g id="original-06928"><svg xmlns="http://www.w3.org/2000/svg" viewBox="0 0 438.549 438.549" xmlns:xlink="http://www.w3.org/1999/xlink" version="1.1" preserveAspectRatio="xMidYMid meet">
  <path d="M409.132 114.573c-19.608-33.596-46.205-60.194-79.798-79.8-33.598-19.607-70.277-29.408-110.063-29.408-39.781 0-76.472 9.804-110.063 29.408-33.596 19.605-60.192 46.204-79.8 79.8C9.803 148.168 0 184.854 0 224.63c0 47.78 13.94 90.745 41.827 128.906 27.884 38.164 63.906 64.572 108.063 79.227 5.14.954 8.945.283 11.419-1.996 2.475-2.282 3.711-5.14 3.711-8.562 0-.571-.049-5.708-.144-15.417a2549.81 2549.81 0 0 1-.144-25.406l-6.567 1.136c-4.187.767-9.469 1.092-15.846 1-6.374-.089-12.991-.757-19.842-1.999-6.854-1.231-13.229-4.086-19.13-8.559-5.898-4.473-10.085-10.328-12.56-17.556l-2.855-6.57c-1.903-4.374-4.899-9.233-8.992-14.559-4.093-5.331-8.232-8.945-12.419-10.848l-1.999-1.431c-1.332-.951-2.568-2.098-3.711-3.429-1.142-1.331-1.997-2.663-2.568-3.997-.572-1.335-.098-2.43 1.427-3.289 1.525-.859 4.281-1.276 8.28-1.276l5.708.853c3.807.763 8.516 3.042 14.133 6.851 5.614 3.806 10.229 8.754 13.846 14.842 4.38 7.806 9.657 13.754 15.846 17.847 6.184 4.093 12.419 6.136 18.699 6.136 6.28 0 11.704-.476 16.274-1.423 4.565-.952 8.848-2.383 12.847-4.285 1.713-12.758 6.377-22.559 13.988-29.41-10.848-1.14-20.601-2.857-29.264-5.14-8.658-2.286-17.605-5.996-26.835-11.14-9.235-5.137-16.896-11.516-22.985-19.126-6.09-7.614-11.088-17.61-14.987-29.979-3.901-12.374-5.852-26.648-5.852-42.826 0-23.035 7.52-42.637 22.557-58.817-7.044-17.318-6.379-36.732 1.997-58.24 5.52-1.715 13.706-.428 24.554 3.853 10.85 4.283 18.794 7.952 23.84 10.994 5.046 3.041 9.089 5.618 12.135 7.708 17.705-4.947 35.976-7.421 54.818-7.421s37.117 2.474 54.823 7.421l10.849-6.849c7.419-4.57 16.18-8.758 26.262-12.565 10.088-3.805 17.802-4.853 23.134-3.138 8.562 21.509 9.325 40.922 2.279 58.24 15.036 16.18 22.559 35.787 22.559 58.817 0 16.178-1.958 30.497-5.853 42.966-3.9 12.471-8.941 22.457-15.125 29.979-6.191 7.521-13.901 13.85-23.131 18.986-9.232 5.14-18.182 8.85-26.84 11.136-8.662 2.286-18.415 4.004-29.263 5.146 9.894 8.562 14.842 22.077 14.842 40.539v60.237c0 3.422 1.19 6.279 3.572 8.562 2.379 2.279 6.136 2.95 11.276 1.995 44.163-14.653 80.185-41.062 108.068-79.226 27.88-38.161 41.825-81.126 41.825-128.906-.01-39.771-9.818-76.454-29.414-110.049z" fill="rgba(110, 84, 148, 1)" stroke="none"/>
</svg>
</g></svg></g></g>
<!-- /image 06928 -->

<!-- image 50088 -->
<g id="transformed-50088" data-image="50088" transform="translate(95, 95) rotate(309, 30, 30)"><g><svg version="1.1" width="60px" height="60px" viewBox="0 0 60 60"><g id="original-50088"><svg xmlns="http://www.w3.org/2000/svg" viewBox="0 0 475.084 475.084" xmlns:xlink="http://www.w3.org/1999/xlink" version="1.1" preserveAspectRatio="xMidYMid meet">
  <path d="M436.244 146.752c5.14-15.422 7.713-31.409 7.713-47.967 0-22.08-4.859-42.828-14.564-62.242-20.362 0-38.349 3.715-53.961 11.136-15.604 7.423-33.4 18.938-53.379 34.545-25.122-6.09-51.777-9.135-79.941-9.135-30.837 0-60.245 3.333-88.223 9.994-20.364-15.99-38.351-27.74-53.959-35.26-15.608-7.52-33.689-11.279-54.247-11.279-9.707 19.414-14.56 40.163-14.56 62.242 0 16.751 2.568 32.93 7.708 48.535C12.942 177.587 0 215.272 0 260.383c0 39.595 5.898 71.092 17.701 94.507 6.283 12.367 14.465 23.312 24.554 32.832 10.085 9.514 21.601 17.228 34.545 23.13 12.946 5.896 25.981 10.801 39.116 14.699 13.134 3.9 27.646 6.758 43.54 8.559 15.893 1.816 29.93 3.004 42.111 3.579 12.181.564 25.693.853 40.544.853 17.508 0 33.396-.432 47.678-1.283 14.277-.855 30.594-2.953 48.964-6.276 18.367-3.333 34.547-7.857 48.54-13.565 13.99-5.708 27.412-13.895 40.259-24.551 12.847-10.663 22.884-23.318 30.121-37.976 11.604-23.603 17.412-55.107 17.412-94.507-.007-45.302-12.95-83.178-38.841-113.632zm-34.249 207.703c-6.092 12.471-13.802 22.265-23.127 29.41-9.329 7.139-20.938 12.847-34.831 17.135-13.9 4.281-27.217 7.087-39.971 8.415-12.758 1.334-26.933 1.998-42.545 1.998h-47.966c-15.607 0-29.79-.664-42.541-1.998-12.752-1.328-26.075-4.134-39.971-8.415-13.891-4.288-25.5-9.996-34.829-17.135-9.329-7.146-17.037-16.939-23.128-29.41-6.09-12.471-9.136-27.076-9.136-43.824 0-22.847 6.567-42.264 19.702-58.245 13.134-15.99 30.929-23.982 53.387-23.982 8.188 0 26.746 1.997 55.677 5.995 13.513 2.093 28.456 3.14 44.823 3.14 16.372 0 31.313-1.044 44.824-3.14 29.317-3.999 47.869-5.995 55.678-5.995 22.457 0 40.252 7.996 53.386 23.982 13.135 15.988 19.698 35.398 19.698 58.245 0 16.751-3.046 31.364-9.13 43.824z" fill="rgba(110, 84, 148, 1)" stroke="none"/>
  <path d="M166.875 265.52c-5.806-6.475-12.703-9.712-20.699-9.712-7.998 0-14.896 3.241-20.701 9.712-5.802 6.468-9.897 13.703-12.275 21.689-2.383 8.002-3.571 15.804-3.571 23.422 0 7.61 1.191 15.413 3.571 23.414 2.375 7.991 6.468 15.222 12.275 21.689 5.808 6.475 12.703 9.713 20.701 9.713 7.996 0 14.896-3.244 20.699-9.713 5.804-6.468 9.897-13.698 12.275-21.689 2.38-8.001 3.571-15.804 3.571-23.414 0-7.611-1.188-15.42-3.571-23.422-2.379-7.983-6.468-15.215-12.275-21.689z" fill="rgba(110, 84, 148, 1)" stroke="none"/>
  <path d="M349.601 265.52c-5.804-6.475-12.703-9.712-20.697-9.712-7.991 0-14.894 3.241-20.701 9.712-5.804 6.468-9.896 13.703-12.271 21.689-2.385 8.002-3.576 15.804-3.576 23.422 0 7.61 1.191 15.413 3.576 23.414 2.375 7.991 6.468 15.222 12.271 21.689 5.808 6.475 12.71 9.713 20.701 9.713 7.994 0 14.894-3.244 20.697-9.713 5.801-6.468 9.896-13.698 12.278-21.689 2.379-8.001 3.569-15.804 3.569-23.414 0-7.611-1.19-15.42-3.569-23.422-2.381-7.983-6.477-15.215-12.278-21.689z" fill="rgba(110, 84, 148, 1)" stroke="none"/>
</svg>
</g></svg></g></g>
<!-- /image 50088 -->
</defs><rect x="0" y="0" width="250" height="250" fill="rgba(66, 50, 89, 1)"></rect><use xlink:href="#transformed-96735" transform="translate(-250, -250)"></use><use xlink:href="#transformed-96735" transform="translate(0, -250)"></use><use xlink:href="#transformed-96735" transform="translate(250, -250)"></use><use xlink:href="#transformed-96735" transform="translate(-250, 0)"></use><use xlink:href="#transformed-96735" transform="translate(0, 0)"></use><use xlink:href="#transformed-96735" transform="translate(250, 0)"></use><use xlink:href="#transformed-96735" transform="translate(-250, 250)"></use><use xlink:href="#transformed-96735" transform="translate(0, 250)"></use><use xlink:href="#transformed-96735" transform="translate(250, 250)"></use><use xlink:href="#transformed-12340" transform="translate(-250, -250)"></use><use xlink:href="#transformed-12340" transform="translate(0, -250)"></use><use xlink:href="#transformed-12340" transform="translate(250, -250)"></use><use xlink:href="#transformed-12340" transform="translate(-250, 0)"></use><use xlink:href="#transformed-12340" transform="translate(0, 0)"></use><use xlink:href="#transformed-12340" transform="translate(250, 0)"></use><use xlink:href="#transformed-12340" transform="translate(-250, 250)"></use><use xlink:href="#transformed-12340" transform="translate(0, 250)"></use><use xlink:href="#transformed-12340" transform="translate(250, 250)"></use><use xlink:href="#transformed-06928" transform="translate(-250, -250)"></use><use xlink:href="#transformed-06928" transform="translate(0, -250)"></use><use xlink:href="#transformed-06928" transform="translate(250, -250)"></use><use xlink:href="#transformed-06928" transform="translate(-250, 0)"></use><use xlink:href="#transformed-06928" transform="translate(0, 0)"></use><use xlink:href="#transformed-06928" transform="translate(250, 0)"></use><use xlink:href="#transformed-06928" transform="translate(-250, 250)"></use><use xlink:href="#transformed-06928" transform="translate(0, 250)"></use><use xlink:href="#transformed-06928" transform="translate(250, 250)"></use><use xlink:href="#transformed-50088" transform="translate(-250, -250)"></use><use xlink:href="#transformed-50088" transform="translate(0, -250)"></use><use xlink:href="#transformed-50088" transform="translate(250, -250)"></use><use xlink:href="#transformed-50088" transform="translate(-250, 0)"></use><use xlink:href="#transformed-50088" transform="translate(0, 0)"></use><use xlink:href="#transformed-50088" transform="translate(250, 0)"></use><use xlink:href="#transformed-50088" transform="translate(-250, 250)"></use><use xlink:href="#transformed-50088" transform="translate(0, 250)"></use><use xlink:href="#transformed-50088" transform="translate(250, 250)"></use></svg>